<svg width="259" height="248" viewBox="0 0 259 248" fill="none" xmlns="http://www.w3.org/2000/svg">
<path d="M0 15C0 6.71573 6.71573 0 15 0H243.333C251.618 0 258.333 6.71573 258.333 15V233C258.333 241.284 251.618 248 243.333 248H15C6.71572 248 0 241.284 0 233V15Z" fill="#DDE1E8"/>
<path fill-rule="evenodd" clip-rule="evenodd" d="M158.167 139.878C158.167 142.293 156.3 144.25 154 144.25H104L135.525 118.686C136.55 117.768 138.408 117.771 139.413 118.683L158.167 135.475V139.878ZM112.333 99.25C115.783 99.25 118.583 101.77 118.583 104.875C118.583 107.98 115.783 110.5 112.333 110.5C108.883 110.5 106.083 107.98 106.083 104.875C106.083 101.77 108.883 99.25 112.333 99.25V99.25ZM154 84.25H104C97.1083 84.25 91.5 89.2975 91.5 95.5V140.5C91.5 146.703 97.1083 151.75 104 151.75H154C160.892 151.75 166.5 146.703 166.5 140.5V95.5C166.5 89.2975 160.892 84.25 154 84.25V84.25Z" fill="#CBCFD7"/>
<mask id="mask0_44_1336" style="mask-type:alpha" maskUnits="userSpaceOnUse" x="91" y="84" width="76" height="68">
<path fill-rule="evenodd" clip-rule="evenodd" d="M158.167 139.878C158.167 142.293 156.3 144.25 154 144.25H104L135.525 118.686C136.55 117.768 138.408 117.771 139.413 118.683L158.167 135.475V139.878ZM112.333 99.25C115.783 99.25 118.583 101.77 118.583 104.875C118.583 107.98 115.783 110.5 112.333 110.5C108.883 110.5 106.083 107.98 106.083 104.875C106.083 101.77 108.883 99.25 112.333 99.25V99.25ZM154 84.25H104C97.1083 84.25 91.5 89.2975 91.5 95.5V140.5C91.5 146.703 97.1083 151.75 104 151.75H154C160.892 151.75 166.5 146.703 166.5 140.5V95.5C166.5 89.2975 160.892 84.25 154 84.25V84.25Z" fill="white"/>
</mask>
<g mask="url(#mask0_44_1336)">
<rect x="79" y="73" width="100" height="90" fill="#CBCFD7"/>
</g>
</svg>
